<svg viewBox="0 0 24 24" fill="none" xmlns="http://www.w3.org/2000/svg">
<path fill-rule="evenodd" clip-rule="evenodd" d="M7.55245 15.5223C7.55245 16.6446 8.1136 17.387 9.79705 17.387C11.8518 17.387 12.7842 15.8935 12.7842 14.5813V13.8695C12.7842 13.8443 12.7742 13.8202 12.7564 13.8024V13.8024C12.6966 13.7426 12.4517 13.6198 12.368 13.6076C12.025 13.5574 11.3293 13.4676 10.5396 13.4676C8.29498 13.4676 7.55245 14.2187 7.55245 15.5223ZM18.2921 6.97937C18.2921 7.06536 18.2579 7.14783 18.1971 7.20863V7.20863C18.1363 7.26944 18.0539 7.3036 17.9679 7.3036H17.4854C17.3994 7.3036 17.3169 7.26944 17.2561 7.20863V7.20863C17.1953 7.14783 17.1612 7.06536 17.1612 6.97937V6.12567C17.1612 6.03968 17.1953 5.95721 17.2561 5.8964V5.8964C17.3169 5.8356 17.3994 5.80144 17.4854 5.80144H17.9679C18.0539 5.80144 18.1363 5.8356 18.1971 5.8964V5.8964C18.2579 5.95721 18.2921 6.03968 18.2921 6.12567V6.97937ZM18.2921 17.8139C18.2921 17.8999 18.2579 17.9824 18.1971 18.0432V18.0432C18.1363 18.104 18.0538 18.1381 17.9679 18.1381H17.4854C17.3994 18.1381 17.3169 18.104 17.2561 18.0432V18.0432C17.1953 17.9824 17.1612 17.8999 17.1612 17.8139V9.11272C17.1612 9.02673 17.1953 8.94426 17.2561 8.88345V8.88345C17.3169 8.82265 17.3994 8.78849 17.4854 8.78849H17.9679C18.0539 8.78849 18.1363 8.82265 18.1971 8.88345V8.88345C18.2579 8.94426 18.2921 9.02673 18.2921 9.11272V17.8139ZM13.8943 17.9482C13.8988 17.9482 13.901 17.9536 13.8978 17.9568L13.7444 18.1103C13.7266 18.1281 13.7024 18.1381 13.6772 18.1381H13.311C13.2114 18.1381 13.1158 18.0986 13.0454 18.0281V18.0281C12.9933 17.976 12.9576 17.9097 12.9429 17.8375L12.7984 17.1281C12.7851 17.0628 12.7276 17.0158 12.661 17.0158V17.0158C12.6139 17.0158 12.5703 17.0395 12.5433 17.0781C12.158 17.6303 11.3951 18.3194 9.59856 18.3194C7.54388 18.3194 6.42158 17.1971 6.42158 15.5137C6.42158 13.459 7.91511 12.5266 10.341 12.5266C11.2197 12.5266 12.0985 12.6431 12.4385 12.6936C12.531 12.7073 12.6249 12.6773 12.691 12.6112V12.6112C12.7451 12.557 12.7755 12.4836 12.7755 12.407V11.9655C12.7755 10.282 12.2144 9.53957 10.3496 9.53957C8.57445 9.53957 7.98065 10.3845 7.92771 11.2701C7.92257 11.3559 7.88958 11.4385 7.82878 11.4993V11.4993C7.76797 11.5601 7.6855 11.5942 7.59951 11.5942H7.11703C7.03104 11.5942 6.94857 11.5601 6.88777 11.4993V11.4993C6.82697 11.4385 6.79193 11.3559 6.79586 11.27C6.86152 9.83302 7.9881 8.59856 10.341 8.59856C13.1468 8.59856 13.8892 9.90216 13.8892 11.9655V17.9431C13.8892 17.9459 13.8915 17.9482 13.8943 17.9482V17.9482ZM0 22C0 23.1046 0.895431 24 2 24H22C23.1046 24 24 23.1046 24 22V2C24 0.89543 23.1046 0 22 0H2C0.89543 0 0 0.895431 0 2V22Z" fill="white"/>
</svg>
